<?xml version="1.0" standalone="no"?>
<!DOCTYPE svg PUBLIC "-//W3C//DTD SVG 20010904//EN"
 "http://www.w3.org/TR/2001/REC-SVG-20010904/DTD/svg10.dtd">
<svg version="1.0" xmlns="http://www.w3.org/2000/svg"
 width="900.000000pt" height="900.000000pt" viewBox="0 0 900.000000 900.000000"
 preserveAspectRatio="xMidYMid meet">
<metadata>
Created by potrace 1.11, written by Peter Selinger 2001-2013
</metadata>
<g transform="translate(0.000000,900.000000) scale(0.100000,-0.100000)"
fill="#000000" stroke="none">
<path d="M6720 4914 c-217 -26 -330 -53 -466 -112 -312 -135 -533 -391 -621
-719 -24 -89 -27 -115 -27 -288 -1 -204 10 -281 60 -428 117 -344 396 -598
898 -818 455 -199 533 -236 612 -282 116 -69 186 -138 226 -223 28 -60 32 -78
32 -158 0 -118 -30 -190 -113 -269 -112 -107 -240 -149 -456 -150 -156 -1
-263 19 -383 74 -135 61 -273 183 -385 341 -38 54 -67 86 -75 83 -19 -7 -655
-376 -666 -385 -5 -5 9 -41 34 -84 129 -225 328 -423 565 -559 413 -239 1047
-293 1532 -132 191 64 336 149 469 277 106 101 160 177 220 302 71 150 95 260
101 456 8 256 -18 409 -102 586 -81 173 -195 310 -360 433 -183 137 -357 230
-765 406 -347 150 -440 202 -524 296 -80 89 -112 221 -82 340 52 202 245 308
496 270 156 -24 300 -127 395 -284 22 -37 45 -65 51 -62 10 3 633 402 643 411
17 16 -129 222 -230 325 -229 231 -512 342 -903 353 -77 2 -157 2 -176 0z"/>
<path d="M4038 3338 l-3 -1533 -23 -67 c-44 -129 -117 -207 -228 -244 -90 -29
-288 -27 -366 4 -115 46 -207 137 -310 305 -31 50 -62 91 -69 89 -7 -2 -162
-94 -345 -205 l-333 -201 43 -83 c162 -303 422 -519 750 -623 148 -46 274 -63
476 -64 205 0 343 19 496 69 180 59 292 125 420 248 189 180 298 425 333 749
7 65 11 599 11 1593 l0 1495 -425 0 -425 0 -2 -1532z"/>
</g>
</svg>
